<svg version="1" xmlns="http://www.w3.org/2000/svg" viewBox="0 0 22 22">
    <path fill="#424242" d="M 4.125 5.042969 L 17.875 5.042969 L 17.875 6.417969 L 4.125 6.417969 Z M 4.125 5.042969 "/>
    <path fill="#616161" d="M 1.832031 11.457031 L 20.167969 11.457031 L 20.167969 8.25 C 20.167969 7.242188 19.339844 6.417969 18.332031 6.417969 L 3.667969 6.417969 C 2.660156 6.417969 1.832031 7.242188 1.832031 8.25 Z M 1.832031 11.457031 "/>
    <path fill="#424242" d="M 3.667969 16.5 L 18.332031 16.5 C 19.339844 16.5 20.167969 15.675781 20.167969 14.667969 L 20.167969 11 L 1.832031 11 L 1.832031 14.667969 C 1.832031 15.675781 2.660156 16.5 3.667969 16.5 Z M 3.667969 16.5 "/>
    <path fill="#00E676" d="M 18.792969 8.25 C 18.792969 8.503906 18.585938 8.707031 18.332031 8.707031 C 18.082031 8.707031 17.875 8.503906 17.875 8.25 C 17.875 7.996094 18.082031 7.792969 18.332031 7.792969 C 18.585938 7.792969 18.792969 7.996094 18.792969 8.25 Z M 18.792969 8.25 "/>
    <path fill="#90CAF9" d="M 5.042969 1.832031 L 16.957031 1.832031 L 16.957031 6.417969 L 5.042969 6.417969 Z M 5.042969 1.832031 "/>
    <path fill="#242424" d="M 17.1875 14.207031 L 4.8125 14.207031 C 4.445312 14.207031 4.125 13.886719 4.125 13.519531 C 4.125 13.152344 4.445312 12.832031 4.8125 12.832031 L 17.1875 12.832031 C 17.554688 12.832031 17.875 13.152344 17.875 13.519531 C 17.875 13.886719 17.554688 14.207031 17.1875 14.207031 Z M 17.1875 14.207031 "/>
    <path fill="#90CAF9" d="M 5.042969 14.207031 L 16.957031 14.207031 L 16.957031 19.25 L 5.042969 19.25 Z M 5.042969 14.207031 "/>
    <path fill="#42A5F5" d="M 5.042969 13.292969 L 16.957031 13.292969 L 16.957031 14.207031 L 5.042969 14.207031 Z M 5.042969 13.292969 "/>
    <path fill="#1976D2" d="M 7.332031 15.125 L 15.125 15.125 L 15.125 16.042969 L 7.332031 16.042969 Z M 7.332031 15.125 "/>
    <path fill="#1976D2" d="M 7.332031 16.957031 L 13.292969 16.957031 L 13.292969 17.875 L 7.332031 17.875 Z M 7.332031 16.957031 "/>
</svg>
