<svg version="1" xmlns="http://www.w3.org/2000/svg" viewBox="0 0 22 22">
    <path fill="#D50000" d="M 11 2.75 C 6.460938 2.75 2.75 6.460938 2.75 11 C 2.75 15.539062 6.460938 19.25 11 19.25 C 15.539062 19.25 19.25 15.539062 19.25 11 C 19.25 6.460938 15.539062 2.75 11 2.75 Z M 11 4.582031 C 12.421875 4.582031 13.75 5.085938 14.851562 5.867188 L 5.867188 14.851562 C 5.085938 13.75 4.582031 12.421875 4.582031 11 C 4.582031 7.472656 7.472656 4.582031 11 4.582031 Z M 11 17.417969 C 9.578125 17.417969 8.25 16.914062 7.148438 16.132812 L 16.132812 7.148438 C 16.914062 8.25 17.417969 9.578125 17.417969 11 C 17.417969 14.527344 14.527344 17.417969 11 17.417969 Z M 11 17.417969 "/>
</svg>
