<svg version="1" xmlns="http://www.w3.org/2000/svg" viewBox="0 0 22 22">
    <path fill="#ff9900" d="M 17.417969 5.5 L 10.082031 5.5 L 8.25 3.667969 L 3.667969 3.667969 C 2.660156 3.667969 1.832031 4.492188 1.832031 5.5 L 1.832031 16.5 C 1.832031 17.507812 2.660156 18.332031 3.667969 18.332031 L 17.875 18.332031 C 18.652344 18.332031 19.25 17.738281 19.25 16.957031 L 19.25 7.332031 C 19.25 6.324219 18.425781 5.5 17.417969 5.5 Z M 17.417969 5.5 "/>
    <path fill="#ffcc00" d="M 19.339844 8.25 L 7.011719 8.25 C 6.140625 8.25 5.363281 8.890625 5.226562 9.761719 L 3.667969 18.332031 L 18.195312 18.332031 C 19.066406 18.332031 19.847656 17.691406 19.984375 16.820312 L 21.128906 10.402344 C 21.359375 9.304688 20.488281 8.25 19.339844 8.25 Z M 19.339844 8.25 "/>
</svg>
