<svg version="1" xmlns="http://www.w3.org/2000/svg" viewBox="0 0 22 22">
    <path fill="#424242" d="M 11 1.832031 C 8.480469 1.832031 6.417969 3.894531 6.417969 6.417969 L 6.417969 8.25 L 8.25 8.25 L 8.25 6.417969 C 8.25 4.902344 9.488281 3.667969 11 3.667969 C 12.511719 3.667969 13.75 4.902344 13.75 6.417969 L 13.75 8.25 L 15.582031 8.25 L 15.582031 6.417969 C 15.582031 3.894531 13.519531 1.832031 11 1.832031 Z M 11 1.832031 "/>
    <path fill="#FB8C00" d="M 16.5 20.167969 L 5.5 20.167969 C 4.492188 20.167969 3.667969 19.339844 3.667969 18.332031 L 3.667969 10.082031 C 3.667969 9.074219 4.492188 8.25 5.5 8.25 L 16.5 8.25 C 17.507812 8.25 18.332031 9.074219 18.332031 10.082031 L 18.332031 18.332031 C 18.332031 19.339844 17.507812 20.167969 16.5 20.167969 Z M 16.5 20.167969 "/>
    <path fill="#C76E00" d="M 12.375 14.207031 C 12.375 14.96875 11.757812 15.582031 11 15.582031 C 10.242188 15.582031 9.625 14.96875 9.625 14.207031 C 9.625 13.449219 10.242188 12.832031 11 12.832031 C 11.757812 12.832031 12.375 13.449219 12.375 14.207031 Z M 12.375 14.207031 "/>
</svg>
