<svg version="1" xmlns="http://www.w3.org/2000/svg" viewBox="0 0 22 22">
    <path fill="#7CB342" d="M 11 1.832031 C 5.957031 1.832031 1.832031 5.957031 1.832031 11 C 1.832031 16.042969 5.957031 20.167969 11 20.167969 C 16.042969 20.167969 20.167969 16.042969 20.167969 11 C 20.167969 5.957031 16.042969 1.832031 11 1.832031 Z M 11 1.832031 "/>
    <path fill="#0099ff" d="M 20.625 11 C 20.625 16.363281 16.269531 20.625 11 20.625 C 5.730469 20.625 1.375 16.363281 1.375 11 C 1.375 5.636719 5.636719 1.375 11 1.375 C 16.363281 1.375 20.625 5.636719 20.625 11 Z M 10.910156 15.445312 C 10.910156 15.261719 10.816406 15.171875 10.632812 15.078125 C 10.039062 14.894531 9.488281 14.894531 8.984375 14.390625 C 8.890625 14.207031 8.890625 14.023438 8.800781 13.796875 C 8.617188 13.613281 8.113281 13.519531 7.835938 13.429688 C 7.472656 13.429688 7.058594 13.429688 6.601562 13.429688 C 6.417969 13.429688 6.097656 13.429688 5.914062 13.429688 C 5.636719 13.335938 5.410156 12.925781 5.226562 12.648438 C 5.226562 12.558594 5.226562 12.375 5.042969 12.375 C 4.859375 12.285156 4.675781 12.464844 4.445312 12.375 C 4.355469 12.285156 4.355469 12.191406 4.355469 12.101562 C 4.355469 11.824219 4.539062 11.503906 4.722656 11.320312 C 4.996094 11.136719 5.316406 11.414062 5.589844 11.414062 C 5.683594 11.414062 5.683594 11.414062 5.773438 11.503906 C 6.050781 11.597656 6.140625 11.960938 6.140625 12.285156 C 6.140625 12.375 6.140625 12.464844 6.140625 12.464844 C 6.140625 12.558594 6.234375 12.558594 6.324219 12.558594 C 6.417969 12.054688 6.417969 11.597656 6.507812 11.089844 C 6.507812 10.496094 7.105469 9.945312 7.5625 9.761719 C 7.746094 9.671875 7.835938 9.855469 8.066406 9.761719 C 8.664062 9.578125 10.082031 8.984375 9.808594 8.203125 C 9.625 7.515625 9.027344 6.875 8.25 6.964844 C 8.066406 7.058594 7.976562 7.148438 7.792969 7.242188 C 7.515625 7.425781 6.921875 8.019531 6.644531 8.019531 C 6.140625 7.929688 6.140625 7.242188 6.277344 6.964844 C 6.371094 6.601562 7.242188 5.316406 7.835938 5.546875 C 7.929688 5.636719 8.113281 5.820312 8.203125 5.914062 C 8.386719 6.003906 8.707031 6.003906 8.984375 6.003906 C 9.074219 6.003906 9.167969 6.003906 9.257812 5.914062 C 9.351562 5.820312 9.351562 5.820312 9.351562 5.730469 C 9.351562 5.453125 9.074219 5.132812 8.890625 4.949219 C 8.707031 4.765625 8.386719 4.582031 8.113281 4.445312 C 7.148438 4.171875 5.589844 4.539062 4.859375 5.226562 C 4.125 5.914062 3.527344 7.058594 3.117188 8.019531 C 2.933594 8.617188 2.75 9.351562 2.660156 10.039062 C 2.566406 10.496094 2.476562 10.910156 2.75 11.367188 C 3.023438 11.960938 3.621094 12.511719 4.214844 12.925781 C 4.582031 13.199219 5.363281 13.199219 5.773438 13.703125 C 6.050781 14.070312 5.957031 14.574219 5.957031 15.035156 C 5.957031 15.628906 6.324219 16.085938 6.554688 16.589844 C 6.644531 16.867188 6.738281 17.277344 6.828125 17.554688 C 6.828125 17.644531 6.921875 18.242188 6.921875 18.332031 C 7.515625 18.609375 7.976562 18.929688 8.664062 19.113281 C 8.753906 19.113281 9.121094 18.515625 9.121094 18.425781 C 9.394531 18.148438 9.625 17.738281 9.898438 17.554688 C 10.082031 17.460938 10.265625 17.371094 10.496094 17.1875 C 10.679688 17.003906 10.769531 16.589844 10.863281 16.316406 C 10.910156 16.085938 11 15.722656 10.910156 15.445312 Z M 11.089844 6.554688 C 11.183594 6.554688 11.273438 6.460938 11.457031 6.371094 C 11.734375 6.1875 12.054688 5.867188 12.328125 5.683594 C 12.605469 5.5 12.925781 5.179688 13.109375 4.996094 C 13.382812 4.8125 13.613281 4.398438 13.703125 4.125 C 13.796875 3.941406 14.070312 3.527344 13.980469 3.253906 C 13.886719 3.070312 13.382812 2.980469 13.199219 2.886719 C 12.421875 2.703125 11.777344 2.613281 11 2.613281 C 10.726562 2.613281 10.3125 2.703125 10.222656 2.980469 C 10.128906 3.484375 10.496094 3.347656 10.910156 3.484375 C 10.910156 3.484375 11 4.261719 11 4.355469 C 11.089844 4.8125 10.816406 5.132812 10.816406 5.589844 C 10.816406 5.867188 10.816406 6.371094 11 6.554688 Z M 19.160156 13.292969 C 19.25 13.109375 19.25 12.789062 19.339844 12.605469 C 19.433594 12.144531 19.433594 11.640625 19.433594 11.183594 C 19.433594 10.222656 19.339844 9.257812 19.066406 8.386719 C 18.882812 8.113281 18.792969 7.792969 18.699219 7.515625 C 18.515625 7.011719 18.242188 6.554688 17.828125 6.1875 C 17.460938 5.683594 16.957031 4.355469 16.085938 4.765625 C 15.8125 4.859375 15.628906 5.226562 15.398438 5.453125 C 15.214844 5.730469 15.035156 6.050781 14.804688 6.324219 C 14.710938 6.417969 14.621094 6.601562 14.710938 6.691406 C 14.710938 6.785156 14.804688 6.785156 14.894531 6.785156 C 15.078125 6.875 15.171875 6.875 15.355469 6.964844 C 15.445312 6.964844 15.539062 7.058594 15.445312 7.148438 C 15.445312 7.148438 15.445312 7.242188 15.355469 7.242188 C 14.894531 7.746094 14.390625 8.113281 13.933594 8.570312 C 13.839844 8.664062 13.75 8.847656 13.75 8.9375 C 13.75 9.027344 13.839844 9.027344 13.839844 9.121094 C 13.839844 9.210938 13.75 9.210938 13.660156 9.304688 C 13.476562 9.394531 13.292969 9.488281 13.152344 9.578125 C 13.0625 9.761719 13.152344 10.082031 13.0625 10.265625 C 12.972656 10.769531 12.695312 11.136719 12.464844 11.597656 C 12.285156 11.871094 12.191406 12.191406 12.007812 12.464844 C 12.007812 12.832031 11.917969 13.152344 12.101562 13.429688 C 12.558594 14.117188 13.429688 13.703125 14.117188 14.023438 C 14.300781 14.117188 14.484375 14.117188 14.621094 14.300781 C 14.894531 14.574219 14.894531 15.078125 14.988281 15.355469 C 15.078125 15.722656 15.171875 16.132812 15.355469 16.5 C 15.445312 16.957031 15.628906 17.460938 15.722656 17.828125 C 16.589844 17.140625 17.371094 16.410156 17.921875 15.445312 C 18.609375 14.851562 18.882812 14.070312 19.160156 13.292969 Z M 19.160156 13.292969 "/>
</svg>
