<svg version="1" xmlns="http://www.w3.org/2000/svg" viewBox="0 0 22 22">
    <g fill="#0099ff">
        <path d="M 10.082031 16.042969 L 11.917969 16.042969 L 11.917969 21.082031 L 10.082031 21.082031 Z M 10.082031 16.042969 "/>
        <path d="M 11 13.566406 L 14.207031 17.417969 L 7.792969 17.417969 Z M 11 13.566406 "/>
        <path d="M 10.082031 0.917969 L 11.917969 0.917969 L 11.917969 5.957031 L 10.082031 5.957031 Z M 10.082031 0.917969 "/>
        <path d="M 11 8.433594 L 7.792969 4.582031 L 14.207031 4.582031 Z M 11 8.433594 "/>
        <path d="M 0.917969 10.082031 L 5.957031 10.082031 L 5.957031 11.917969 L 0.917969 11.917969 Z M 0.917969 10.082031 "/>
        <path d="M 8.433594 11 L 4.582031 14.207031 L 4.582031 7.792969 Z M 8.433594 11 "/>
        <path d="M 16.042969 10.082031 L 21.082031 10.082031 L 21.082031 11.917969 L 16.042969 11.917969 Z M 16.042969 10.082031 "/>
        <path d="M 13.566406 11 L 17.417969 7.792969 L 17.417969 14.207031 Z M 13.566406 11 "/>
    </g>
    <path fill="#F44336" d="M 12.375 11 C 12.375 11.757812 11.757812 12.375 11 12.375 C 10.242188 12.375 9.625 11.757812 9.625 11 C 9.625 10.242188 10.242188 9.625 11 9.625 C 11.757812 9.625 12.375 10.242188 12.375 11 Z M 12.375 11 "/>
</svg>
