<svg version="1" xmlns="http://www.w3.org/2000/svg" viewBox="0 0 22 22">
    <g fill="#3e9ade">
        <path d="M 17.738281 5.453125 L 16.316406 6.601562 C 17.324219 7.835938 17.875 9.394531 17.875 10.953125 C 17.875 14.757812 14.804688 17.828125 11 17.828125 C 10.585938 17.828125 10.128906 17.785156 9.714844 17.691406 L 9.394531 19.480469 C 9.945312 19.570312 10.496094 19.617188 11 19.617188 C 15.8125 19.617188 19.707031 15.722656 19.707031 10.910156 C 19.707031 8.984375 19.019531 7.011719 17.738281 5.453125 Z M 17.738281 5.453125 "/>
        <path d="M 14.207031 3.667969 L 19.664062 4.398438 L 15.171875 8.890625 Z M 14.207031 3.667969 "/>
        <path d="M 11 2.292969 C 6.1875 2.292969 2.292969 6.1875 2.292969 11 C 2.292969 13.109375 3.023438 15.125 4.398438 16.683594 L 5.773438 15.492188 C 4.722656 14.253906 4.125 12.648438 4.125 11 C 4.125 7.195312 7.195312 4.125 11 4.125 C 11.414062 4.125 11.871094 4.171875 12.285156 4.261719 L 12.605469 2.476562 C 12.101562 2.335938 11.550781 2.292969 11 2.292969 Z M 11 2.292969 "/>
        <path d="M 7.792969 18.332031 L 2.335938 17.601562 L 6.828125 13.109375 Z M 7.792969 18.332031 "/>
    </g>
</svg>
