<?xml version="1.0" encoding="UTF-8"?>
<svg width="15" height="11" viewBox="0 0 15 11" version="1.1">
	<g stroke="none" fill="#000000">
		<path d="M 15.007812 0.132812 C 15.007812 0.230469 15.007812 0.324219 15.007812 0.421875 C 14.570312 1.402344 14.0625 2.710938 13.589844 3.875 C 13.480469 4.140625 13.316406 4.886719 12.96875 4.859375 C 12.683594 4.835938 12.535156 4.089844 12.445312 3.8125 C 12.292969 3.339844 12.210938 3.003906 12.074219 2.605469 C 10.507812 3.261719 9.367188 4.308594 9.421875 6.476562 C 9.460938 8.195312 10.074219 9.632812 10.441406 11.007812 C 8.917969 11.007812 7.394531 11.007812 5.871094 11.007812 C 5.730469 7.347656 5.59375 3.683594 5.46875 0.0078125 C 5.996094 0.0078125 6.519531 0.0078125 7.042969 0.0078125 C 7.40625 1.230469 7.800781 2.421875 8.15625 3.652344 C 8.941406 2.871094 10.023438 2.042969 11.335938 1.65625 C 11.128906 1.378906 10.828125 1.179688 10.5625 0.957031 C 10.320312 0.757812 9.9375 0.570312 9.945312 0.132812 C 10.007812 0.113281 10.015625 0.0390625 10.070312 0.0078125 C 11.675781 0.0078125 13.28125 0.0078125 14.882812 0.0078125 C 14.898438 0.046875 14.921875 0.0742188 14.976562 0.0703125 C 14.972656 0.109375 14.984375 0.128906 15.007812 0.132812 Z M 15.007812 0.132812"/>
		<path d="M 3.433594 0.0078125 C 3.957031 0.0078125 4.484375 0.0078125 5.007812 0.0078125 C 4.867188 3.667969 4.730469 7.332031 4.605469 11.007812 C 3.074219 11.007812 1.539062 11.007812 0.0078125 11.007812 C 0.0078125 10.976562 0.0078125 10.945312 0.0078125 10.914062 C 1.171875 7.300781 2.277344 3.628906 3.433594 0.0078125 Z M 3.433594 0.0078125"/>
	</g>
</svg>
