<svg version="1.1" id="Layer_1" xmlns="http://www.w3.org/2000/svg" xmlns:xlink="http://www.w3.org/1999/xlink" x="0px" y="0px"
     viewBox="0 0 692 138" enable-background="new 0 0 692 138" xml:space="preserve">
<rect x="0" y="0" width="692" height="138" fill="#3c3c3c"/>
<path fill="#ffffff" opacity="1.000000" stroke="none"
    d="
M292.227539,64.999786
    C292.217804,51.507229 292.197357,38.514576 292.240112,25.522135
	C292.277527,14.156734 298.170471,8.127377 309.438751,8.110831
	C342.603912,8.062133 375.769287,8.067089 408.934479,8.107783
	C420.537140,8.122020 426.525879,14.133122 426.530731,25.598246
	C426.542969,54.597008 426.546875,83.595787 426.528534,112.594543
	C426.521637,123.531273 420.479492,129.712006 409.586304,129.728500
	C376.254486,129.778976 342.922455,129.774124 309.590607,129.731644
	C298.393402,129.717361 292.259735,123.580963 292.233978,112.472397
	C292.197662,96.814949 292.237213,81.157333 292.227539,64.999786
M366.813538,30.382072
    C371.048615,30.382072 375.283661,30.382072 379.530151,30.382072
	C379.530151,26.733490 379.530151,23.959728 379.530151,21.024754
	C365.449524,21.024754 351.587921,21.024754 337.719971,21.024754
	C337.719971,24.173937 337.719971,26.952187 337.719971,30.463650
	C342.407288,30.463650 346.929840,30.463650 351.326294,30.463650
	C351.326294,56.779800 351.326294,82.358711 351.326294,108.460220
	C346.602478,108.460220 342.202576,108.460220 337.777313,108.460220
	C337.777313,111.906845 337.777313,114.823975 337.777313,117.685898
	C351.886292,117.685898 365.752686,117.685898 379.388184,117.685898
	C379.388184,114.349358 379.388184,111.436203 379.388184,108.208466
	C374.761902,108.208466 370.485382,108.208466 365.688599,108.208466
	C365.688599,100.024658 365.656250,92.163864 365.695160,84.303421
	C365.783295,66.502502 365.906494,48.701756 366.813538,30.382072
z"/>
<path fill="#ffffff" opacity="1.000000" stroke="none"
    d="
M635.702332,73.479424
    C636.117676,74.882271 636.648438,76.213669 637.544983,77.218712
	C647.611694,88.503876 657.734680,99.738800 668.704102,111.945961
	C662.545044,111.945961 657.346863,112.191002 652.199341,111.788330
	C650.759399,111.675674 649.303162,109.800232 648.136597,108.483452
	C640.524414,99.891197 632.757446,91.418541 625.535339,82.506241
	C622.286377,78.496910 618.978210,76.339584 613.781372,77.209969
	C611.721558,77.554955 609.555725,77.266594 606.998291,77.266594
	C606.998291,88.875542 606.998291,100.120834 606.998291,111.664047
	C602.324890,111.664047 598.090576,111.664047 593.524048,111.664047
	C593.524048,82.586174 593.524048,53.556705 593.524048,23.557129
	C607.203369,24.104620 620.723694,23.781338 633.990234,25.461653
	C643.860962,26.711863 651.491394,32.745682 653.684448,43.391129
	C655.899475,54.143559 651.258972,64.397079 641.744751,70.336060
	C639.926575,71.471031 637.911743,72.291061 635.702332,73.479424
M621.187439,66.916840
    C623.800903,66.535423 626.489502,66.423836 629.013489,65.721115
	C636.077148,63.754444 640.257019,57.151070 640.031067,48.752716
	C639.840759,41.678349 636.539978,37.231487 628.681885,35.913712
	C621.635010,34.731976 614.354980,34.940716 607.184570,34.536415
	C607.184570,45.876575 607.184570,56.258263 607.184570,66.991379
	C611.700500,66.991379 615.978333,66.991379 621.187439,66.916840
z"/>
<path fill="#ffffff" opacity="1.000000" stroke="none"
    d="
M169.538208,109.647682
    C157.221756,115.055771 144.959015,115.267593 132.771896,110.960541
	C122.427452,107.304710 115.821274,99.416275 115.430260,88.672310
	C114.650787,67.254295 115.199341,45.787941 115.199341,24.269680
	C119.311012,24.269680 123.417618,24.269680 128.039703,24.269680
	C128.039703,26.259544 128.039703,28.040024 128.039719,29.820505
	C128.039886,46.974915 127.925545,64.130287 128.071030,81.283470
	C128.230164,100.047462 145.696426,109.745262 162.170013,100.335381
	C169.313950,96.254692 170.941864,89.374687 171.001190,81.976715
	C171.141434,64.490349 171.055984,47.002171 171.061646,29.514727
	C171.062180,27.886147 171.061737,26.257566 171.061737,24.342434
	C175.555389,24.342434 179.650879,24.342434 183.814636,24.342434
	C183.964066,24.518503 184.354614,24.764109 184.353500,25.007921
	C184.258255,45.806099 184.439056,66.612465 183.874130,87.398514
	C183.609894,97.121231 178.714355,104.757599 169.538208,109.647682
z"/>
<path fill="#ffffff" opacity="1.000000" stroke="none"
    d="
M532.000610,24.092915
    C545.813232,24.092915 559.125977,24.092915 572.939087,24.092915
	C572.939087,27.650951 572.939087,31.027859 572.939087,35.055470
	C565.412170,35.055470 557.638550,35.055470 549.864990,35.055470
	C542.081909,35.055470 534.298828,35.055470 526.323730,35.055470
	C526.323730,42.898190 526.323730,50.320869 526.323730,58.296600
	C540.803223,58.296600 555.197876,58.296600 569.855103,58.296600
	C569.855103,62.079784 569.855103,65.318153 569.855103,69.032425
	C555.427429,69.032425 541.020813,69.032425 526.358643,69.032425
	C526.358643,79.757339 526.358643,90.017967 526.358643,100.847885
	C541.776672,100.847885 557.307251,100.847885 573.116821,100.847885
	C573.116821,104.655159 573.116821,107.904327 573.116821,111.553261
	C553.261108,111.553261 533.407043,111.553261 513.264893,111.553261
	C513.264893,82.615402 513.264893,53.714825 513.264893,24.092913
	C519.314026,24.092913 525.407410,24.092913 532.000610,24.092915
z"/>
<path fill="#ffffff" opacity="1.000000" stroke="none"
    d="
M203.405853,61.413261
    C206.655045,31.203575 231.675430,16.818336 262.663788,24.501152
	C263.953339,24.820866 265.217438,25.250088 266.481750,25.663862
	C277.643341,29.316679 279.119965,32.165134 275.966278,45.021137
	C274.219513,43.794655 272.675537,42.729416 271.151031,41.637020
	C262.306549,35.299446 252.659836,31.923456 241.646820,33.740341
	C232.289322,35.284111 225.237381,40.250195 221.317719,48.858143
	C216.223602,60.045235 215.624664,71.735710 219.745285,83.339600
	C225.902344,100.678207 243.166016,107.482430 261.522217,99.781059
	C266.608612,97.647041 271.241852,94.432846 276.838470,91.290001
	C276.838470,95.973442 276.952118,100.210930 276.743744,104.432518
	C276.701447,105.289909 275.611633,106.437897 274.723450,106.859764
	C262.062866,112.873146 248.825653,115.413673 234.957352,112.413414
	C215.833344,108.276146 204.233643,93.520958 203.214600,72.348557
	C203.046921,68.864983 203.300247,65.361153 203.405853,61.413261
z"/>
<path fill="#ffffff" opacity="1.000000" stroke="none"
    d="
M474.999512,24.095295
    C481.959473,24.095295 488.419617,24.095295 495.202942,24.095295
	C495.202942,27.891958 495.202942,31.298811 495.202942,34.991974
	C480.492828,34.991974 466.053772,34.991974 451.311310,34.991974
	C451.311310,42.998730 451.311310,50.730099 451.311310,59.024052
	C465.244354,59.024052 479.277466,59.024052 493.575012,59.024052
	C493.575012,62.821648 493.575012,66.064995 493.575012,69.684196
	C479.519196,69.684196 465.606873,69.684196 451.242920,69.684196
	C451.242920,83.770485 451.242920,97.498619 451.242920,111.577148
	C446.739258,111.577148 442.677612,111.577148 438.243347,111.577148
	C438.243347,82.693092 438.243347,53.671032 438.243347,24.095293
	C450.310364,24.095293 462.405029,24.095293 474.999512,24.095295
z"/>
<path fill="#ffffff" opacity="1.000000" stroke="none"
    d="
M83.996033,111.944046
    C70.393112,111.944046 57.289143,111.944046 43.997467,111.944046
	C43.997467,82.499893 43.997467,53.558151 43.997467,24.355066
	C48.285408,24.355066 52.343590,24.355066 56.730148,24.355066
	C56.730148,49.817287 56.730148,75.068977 56.730148,100.820312
	C71.090195,100.820312 85.136063,100.820312 99.521408,100.820312
	C99.521408,104.683739 99.521408,108.050629 99.521408,111.944046
	C94.394112,111.944046 89.444550,111.944046 83.996033,111.944046
z"/>
</svg>
